<svg aria-roledescription="er" viewBox="0 0 531.05859375 832" style="max-width: 531.059px; background-color: white;" xmlns:xlink="http://www.w3.org/1999/xlink" xmlns="http://www.w3.org/2000/svg" width="100%" id="mermaid-0"><style>#mermaid-0{font-family:"trebuchet ms",verdana,arial,sans-serif;font-size:16px;fill:#000000;}#mermaid-0 .error-icon{fill:#552222;}#mermaid-0 .error-text{fill:#552222;stroke:#552222;}#mermaid-0 .edge-thickness-normal{stroke-width:2px;}#mermaid-0 .edge-thickness-thick{stroke-width:3.5px;}#mermaid-0 .edge-pattern-solid{stroke-dasharray:0;}#mermaid-0 .edge-pattern-dashed{stroke-dasharray:3;}#mermaid-0 .edge-pattern-dotted{stroke-dasharray:2;}#mermaid-0 .marker{fill:#000000;stroke:#000000;}#mermaid-0 .marker.cross{stroke:#000000;}#mermaid-0 svg{font-family:"trebuchet ms",verdana,arial,sans-serif;font-size:16px;}#mermaid-0 .entityBox{fill:#cde498;stroke:#13540c;}#mermaid-0 .attributeBoxOdd{fill:#ffffff;stroke:#13540c;}#mermaid-0 .attributeBoxEven{fill:#f2f2f2;stroke:#13540c;}#mermaid-0 .relationshipLabelBox{fill:hsl(78.1578947368, 58.4615384615%, 84.5098039216%);opacity:0.7;background-color:hsl(78.1578947368, 58.4615384615%, 84.5098039216%);}#mermaid-0 .relationshipLabelBox rect{opacity:0.5;}#mermaid-0 .relationshipLine{stroke:#000000;}#mermaid-0 .entityTitleText{text-anchor:middle;font-size:18px;fill:#000000;}#mermaid-0 :root{--mermaid-font-family:"trebuchet ms",verdana,arial,sans-serif;}</style><g/><defs><marker orient="auto" markerHeight="18" markerWidth="18" refY="9" refX="0" id="ONLY_ONE_START"><path d="M9,0 L9,18 M15,0 L15,18" fill="none" stroke="gray"/></marker></defs><defs><marker orient="auto" markerHeight="18" markerWidth="18" refY="9" refX="18" id="ONLY_ONE_END"><path d="M3,0 L3,18 M9,0 L9,18" fill="none" stroke="gray"/></marker></defs><defs><marker orient="auto" markerHeight="18" markerWidth="30" refY="9" refX="0" id="ZERO_OR_ONE_START"><circle r="6" cy="9" cx="21" fill="white" stroke="gray"/><path d="M9,0 L9,18" fill="none" stroke="gray"/></marker></defs><defs><marker orient="auto" markerHeight="18" markerWidth="30" refY="9" refX="30" id="ZERO_OR_ONE_END"><circle r="6" cy="9" cx="9" fill="white" stroke="gray"/><path d="M21,0 L21,18" fill="none" stroke="gray"/></marker></defs><defs><marker orient="auto" markerHeight="36" markerWidth="45" refY="18" refX="18" id="ONE_OR_MORE_START"><path d="M0,18 Q 18,0 36,18 Q 18,36 0,18 M42,9 L42,27" fill="none" stroke="gray"/></marker></defs><defs><marker orient="auto" markerHeight="36" markerWidth="45" refY="18" refX="27" id="ONE_OR_MORE_END"><path d="M3,9 L3,27 M9,18 Q27,0 45,18 Q27,36 9,18" fill="none" stroke="gray"/></marker></defs><defs><marker orient="auto" markerHeight="36" markerWidth="57" refY="18" refX="18" id="ZERO_OR_MORE_START"><circle r="6" cy="18" cx="48" fill="white" stroke="gray"/><path d="M0,18 Q18,0 36,18 Q18,36 0,18" fill="none" stroke="gray"/></marker></defs><defs><marker orient="auto" markerHeight="36" markerWidth="57" refY="18" refX="39" id="ZERO_OR_MORE_END"><circle r="6" cy="18" cx="9" fill="white" stroke="gray"/><path d="M21,18 Q39,0 57,18 Q39,36 21,18" fill="none" stroke="gray"/></marker></defs><path style="stroke: gray; fill: none;" marker-start="url(#ZERO_OR_MORE_START)" marker-end="url(#ZERO_OR_ONE_END)" d="M202.62890625,556L202.62890625,564.3333333333334C202.62890625,572.6666666666666,202.62890625,589.3333333333334,197.24942016601562,606C191.86993408203125,622.6666666666666,181.1109619140625,639.3333333333334,175.73147583007812,647.6666666666666L170.35198974609375,656" class="er relationshipLine"/><path style="stroke: gray; fill: none;" marker-start="url(#ZERO_OR_MORE_START)" marker-end="url(#ONLY_ONE_END)" d="M102.07108637971697,311L91.28775427476414,324.8333333333333C80.50442216981132,338.6666666666667,58.93775795990566,366.3333333333333,48.15442585495283,397.8333333333333C37.37109375,429.3333333333333,37.37109375,464.6666666666667,37.37109375,500C37.37109375,535.3333333333334,37.37109375,570.6666666666666,42.750579833984375,596.6666666666666C48.13006591796875,622.6666666666666,58.8890380859375,639.3333333333334,64.26852416992188,647.6666666666666L69.64801025390625,656" class="er relationshipLine"/><path style="stroke: gray; fill: none;" marker-start="url(#ZERO_OR_MORE_START)" marker-end="url(#ONLY_ONE_END)" d="M137.92891362028303,311L148.71224572523587,324.8333333333333C159.4955778301887,338.6666666666667,181.06224204009436,366.3333333333333,191.84557414504718,388.5C202.62890625,410.6666666666667,202.62890625,427.3333333333333,202.62890625,435.6666666666667L202.62890625,444" class="er relationshipLine"/><path style="stroke: gray; fill: none;" marker-start="url(#ZERO_OR_MORE_START)" marker-end="url(#ONLY_ONE_END)" d="M295.8307045990566,132L286.02884237421387,140.33333333333334C276.22698014937106,148.66666666666666,256.62325569968556,165.33333333333334,231.54997666077043,187.5C206.47669762185535,209.66666666666666,175.9338639937107,237.33333333333334,160.66244717963838,251.16666666666666L145.39103036556605,265" class="er relationshipLine"/><path style="stroke: gray; fill: none;" marker-start="url(#ZERO_OR_MORE_START)" marker-end="url(#ONLY_ONE_END)" d="M388.11431308962267,132L392.04513069968556,140.33333333333334C395.97594830974845,148.66666666666666,403.83758352987417,165.33333333333334,407.7684011399371,182C411.69921875,198.66666666666666,411.69921875,215.33333333333334,411.69921875,223.66666666666666L411.69921875,232" class="er relationshipLine"/><path style="stroke: gray; fill: none;" marker-start="url(#ZERO_OR_MORE_START)" marker-end="url(#ONLY_ONE_END)" d="M70,110L70,122C70,134,70,158,76.5251572327044,183.83333333333334C83.0503144654088,209.66666666666666,96.1006289308176,237.33333333333334,102.62578616352202,251.16666666666666L109.15094339622641,265" class="er relationshipLine"/><g transform="translate(137.37109375,444 )" id="entity-Pool-5456f826-419f-44a2-81fe-aef01b94d427"><rect height="112" width="130.515625" y="0" x="0" class="er entityBox"/><text style="dominant-baseline: middle; text-anchor: middle; font-size: 12px;" transform="translate(65.2578125,12)" y="0" x="0" id="text-entity-Pool-5456f826-419f-44a2-81fe-aef01b94d427" class="er entityLabel">Pool</text><rect height="22" width="53.6640625" y="24" x="0" class="er attributeBoxOdd"/><text style="dominant-baseline: middle; font-size: 10.2px;" transform="translate(5,35)" y="0" x="0" id="text-entity-Pool-5456f826-419f-44a2-81fe-aef01b94d427-attr-1-type" class="er entityLabel">String</text><rect height="22" width="55.2890625" y="24" x="53.6640625" class="er attributeBoxOdd"/><text style="dominant-baseline: middle; font-size: 10.2px;" transform="translate(58.6640625,35)" y="0" x="0" id="text-entity-Pool-5456f826-419f-44a2-81fe-aef01b94d427-attr-1-name" class="er entityLabel">id</text><rect height="22" width="21.5625" y="24" x="108.953125" class="er attributeBoxOdd"/><text style="dominant-baseline: middle; font-size: 10.2px;" transform="translate(113.953125,35)" y="0" x="0" id="text-entity-Pool-5456f826-419f-44a2-81fe-aef01b94d427-attr-1-key" class="er entityLabel">PK</text><rect height="22" width="53.6640625" y="46" x="0" class="er attributeBoxEven"/><text style="dominant-baseline: middle; font-size: 10.2px;" transform="translate(5,57)" y="0" x="0" id="text-entity-Pool-5456f826-419f-44a2-81fe-aef01b94d427-attr-2-type" class="er entityLabel">String</text><rect height="22" width="55.2890625" y="46" x="53.6640625" class="er attributeBoxEven"/><text style="dominant-baseline: middle; font-size: 10.2px;" transform="translate(58.6640625,57)" y="0" x="0" id="text-entity-Pool-5456f826-419f-44a2-81fe-aef01b94d427-attr-2-name" class="er entityLabel">titulo</text><rect height="22" width="21.5625" y="46" x="108.953125" class="er attributeBoxEven"/><text style="dominant-baseline: middle; font-size: 10.2px;" transform="translate(113.953125,57)" y="0" x="0" id="text-entity-Pool-5456f826-419f-44a2-81fe-aef01b94d427-attr-2-key" class="er entityLabel"/><rect height="22" width="53.6640625" y="68" x="0" class="er attributeBoxOdd"/><text style="dominant-baseline: middle; font-size: 10.2px;" transform="translate(5,79)" y="0" x="0" id="text-entity-Pool-5456f826-419f-44a2-81fe-aef01b94d427-attr-3-type" class="er entityLabel">String</text><rect height="22" width="55.2890625" y="68" x="53.6640625" class="er attributeBoxOdd"/><text style="dominant-baseline: middle; font-size: 10.2px;" transform="translate(58.6640625,79)" y="0" x="0" id="text-entity-Pool-5456f826-419f-44a2-81fe-aef01b94d427-attr-3-name" class="er entityLabel">code</text><rect height="22" width="21.5625" y="68" x="108.953125" class="er attributeBoxOdd"/><text style="dominant-baseline: middle; font-size: 10.2px;" transform="translate(113.953125,79)" y="0" x="0" id="text-entity-Pool-5456f826-419f-44a2-81fe-aef01b94d427-attr-3-key" class="er entityLabel"/><rect height="22" width="53.6640625" y="90" x="0" class="er attributeBoxEven"/><text style="dominant-baseline: middle; font-size: 10.2px;" transform="translate(5,101)" y="0" x="0" id="text-entity-Pool-5456f826-419f-44a2-81fe-aef01b94d427-attr-4-type" class="er entityLabel">DateTime</text><rect height="22" width="55.2890625" y="90" x="53.6640625" class="er attributeBoxEven"/><text style="dominant-baseline: middle; font-size: 10.2px;" transform="translate(58.6640625,101)" y="0" x="0" id="text-entity-Pool-5456f826-419f-44a2-81fe-aef01b94d427-attr-4-name" class="er entityLabel">createdAt</text><rect height="22" width="21.5625" y="90" x="108.953125" class="er attributeBoxEven"/><text style="dominant-baseline: middle; font-size: 10.2px;" transform="translate(113.953125,101)" y="0" x="0" id="text-entity-Pool-5456f826-419f-44a2-81fe-aef01b94d427-attr-4-key" class="er entityLabel"/></g><g transform="translate(70,265 )" id="entity-Participant-21c086fb-8234-4c74-943f-1b2758438120"><rect height="46" width="100" y="0" x="0" class="er entityBox"/><text style="dominant-baseline: middle; text-anchor: middle; font-size: 12px;" transform="translate(50,12)" y="0" x="0" id="text-entity-Participant-21c086fb-8234-4c74-943f-1b2758438120" class="er entityLabel">Participant</text><rect height="22" width="44.296875" y="24" x="0" class="er attributeBoxOdd"/><text style="dominant-baseline: middle; font-size: 10.2px;" transform="translate(5,35)" y="0" x="0" id="text-entity-Participant-21c086fb-8234-4c74-943f-1b2758438120-attr-1-type" class="er entityLabel">String</text><rect height="22" width="26.3671875" y="24" x="44.296875" class="er attributeBoxOdd"/><text style="dominant-baseline: middle; font-size: 10.2px;" transform="translate(49.296875,35)" y="0" x="0" id="text-entity-Participant-21c086fb-8234-4c74-943f-1b2758438120-attr-1-name" class="er entityLabel">id</text><rect height="22" width="29.3359375" y="24" x="70.6640625" class="er attributeBoxOdd"/><text style="dominant-baseline: middle; font-size: 10.2px;" transform="translate(75.6640625,35)" y="0" x="0" id="text-entity-Participant-21c086fb-8234-4c74-943f-1b2758438120-attr-1-key" class="er entityLabel">PK</text></g><g transform="translate(31.3515625,656 )" id="entity-User-27c461b8-7e47-434b-b464-33aa59d26eaf"><rect height="156" width="177.296875" y="0" x="0" class="er entityBox"/><text style="dominant-baseline: middle; text-anchor: middle; font-size: 12px;" transform="translate(88.6484375,12)" y="0" x="0" id="text-entity-User-27c461b8-7e47-434b-b464-33aa59d26eaf" class="er entityLabel">User</text><rect height="22" width="53.6640625" y="24" x="0" class="er attributeBoxOdd"/><text style="dominant-baseline: middle; font-size: 10.2px;" transform="translate(5,35)" y="0" x="0" id="text-entity-User-27c461b8-7e47-434b-b464-33aa59d26eaf-attr-1-type" class="er entityLabel">String</text><rect height="22" width="55.2890625" y="24" x="53.6640625" class="er attributeBoxOdd"/><text style="dominant-baseline: middle; font-size: 10.2px;" transform="translate(58.6640625,35)" y="0" x="0" id="text-entity-User-27c461b8-7e47-434b-b464-33aa59d26eaf-attr-1-name" class="er entityLabel">id</text><rect height="22" width="21.5625" y="24" x="108.953125" class="er attributeBoxOdd"/><text style="dominant-baseline: middle; font-size: 10.2px;" transform="translate(113.953125,35)" y="0" x="0" id="text-entity-User-27c461b8-7e47-434b-b464-33aa59d26eaf-attr-1-key" class="er entityLabel">PK</text><rect height="22" width="46.78125" y="24" x="130.515625" class="er attributeBoxOdd"/><text style="dominant-baseline: middle; font-size: 10.2px;" transform="translate(135.515625,35)" y="0" x="0" id="text-entity-User-27c461b8-7e47-434b-b464-33aa59d26eaf-attr-1-comment" class="er entityLabel"/><rect height="22" width="53.6640625" y="46" x="0" class="er attributeBoxEven"/><text style="dominant-baseline: middle; font-size: 10.2px;" transform="translate(5,57)" y="0" x="0" id="text-entity-User-27c461b8-7e47-434b-b464-33aa59d26eaf-attr-2-type" class="er entityLabel">String</text><rect height="22" width="55.2890625" y="46" x="53.6640625" class="er attributeBoxEven"/><text style="dominant-baseline: middle; font-size: 10.2px;" transform="translate(58.6640625,57)" y="0" x="0" id="text-entity-User-27c461b8-7e47-434b-b464-33aa59d26eaf-attr-2-name" class="er entityLabel">nome</text><rect height="22" width="21.5625" y="46" x="108.953125" class="er attributeBoxEven"/><text style="dominant-baseline: middle; font-size: 10.2px;" transform="translate(113.953125,57)" y="0" x="0" id="text-entity-User-27c461b8-7e47-434b-b464-33aa59d26eaf-attr-2-key" class="er entityLabel"/><rect height="22" width="46.78125" y="46" x="130.515625" class="er attributeBoxEven"/><text style="dominant-baseline: middle; font-size: 10.2px;" transform="translate(135.515625,57)" y="0" x="0" id="text-entity-User-27c461b8-7e47-434b-b464-33aa59d26eaf-attr-2-comment" class="er entityLabel"/><rect height="22" width="53.6640625" y="68" x="0" class="er attributeBoxOdd"/><text style="dominant-baseline: middle; font-size: 10.2px;" transform="translate(5,79)" y="0" x="0" id="text-entity-User-27c461b8-7e47-434b-b464-33aa59d26eaf-attr-3-type" class="er entityLabel">String</text><rect height="22" width="55.2890625" y="68" x="53.6640625" class="er attributeBoxOdd"/><text style="dominant-baseline: middle; font-size: 10.2px;" transform="translate(58.6640625,79)" y="0" x="0" id="text-entity-User-27c461b8-7e47-434b-b464-33aa59d26eaf-attr-3-name" class="er entityLabel">email</text><rect height="22" width="21.5625" y="68" x="108.953125" class="er attributeBoxOdd"/><text style="dominant-baseline: middle; font-size: 10.2px;" transform="translate(113.953125,79)" y="0" x="0" id="text-entity-User-27c461b8-7e47-434b-b464-33aa59d26eaf-attr-3-key" class="er entityLabel"/><rect height="22" width="46.78125" y="68" x="130.515625" class="er attributeBoxOdd"/><text style="dominant-baseline: middle; font-size: 10.2px;" transform="translate(135.515625,79)" y="0" x="0" id="text-entity-User-27c461b8-7e47-434b-b464-33aa59d26eaf-attr-3-comment" class="er entityLabel"/><rect height="22" width="53.6640625" y="90" x="0" class="er attributeBoxEven"/><text style="dominant-baseline: middle; font-size: 10.2px;" transform="translate(5,101)" y="0" x="0" id="text-entity-User-27c461b8-7e47-434b-b464-33aa59d26eaf-attr-4-type" class="er entityLabel">String</text><rect height="22" width="55.2890625" y="90" x="53.6640625" class="er attributeBoxEven"/><text style="dominant-baseline: middle; font-size: 10.2px;" transform="translate(58.6640625,101)" y="0" x="0" id="text-entity-User-27c461b8-7e47-434b-b464-33aa59d26eaf-attr-4-name" class="er entityLabel">googleId</text><rect height="22" width="21.5625" y="90" x="108.953125" class="er attributeBoxEven"/><text style="dominant-baseline: middle; font-size: 10.2px;" transform="translate(113.953125,101)" y="0" x="0" id="text-entity-User-27c461b8-7e47-434b-b464-33aa59d26eaf-attr-4-key" class="er entityLabel"/><rect height="22" width="46.78125" y="90" x="130.515625" class="er attributeBoxEven"/><text style="dominant-baseline: middle; font-size: 10.2px;" transform="translate(135.515625,101)" y="0" x="0" id="text-entity-User-27c461b8-7e47-434b-b464-33aa59d26eaf-attr-4-comment" class="er entityLabel">nullable</text><rect height="22" width="53.6640625" y="112" x="0" class="er attributeBoxOdd"/><text style="dominant-baseline: middle; font-size: 10.2px;" transform="translate(5,123)" y="0" x="0" id="text-entity-User-27c461b8-7e47-434b-b464-33aa59d26eaf-attr-5-type" class="er entityLabel">String</text><rect height="22" width="55.2890625" y="112" x="53.6640625" class="er attributeBoxOdd"/><text style="dominant-baseline: middle; font-size: 10.2px;" transform="translate(58.6640625,123)" y="0" x="0" id="text-entity-User-27c461b8-7e47-434b-b464-33aa59d26eaf-attr-5-name" class="er entityLabel">avatarUrl</text><rect height="22" width="21.5625" y="112" x="108.953125" class="er attributeBoxOdd"/><text style="dominant-baseline: middle; font-size: 10.2px;" transform="translate(113.953125,123)" y="0" x="0" id="text-entity-User-27c461b8-7e47-434b-b464-33aa59d26eaf-attr-5-key" class="er entityLabel"/><rect height="22" width="46.78125" y="112" x="130.515625" class="er attributeBoxOdd"/><text style="dominant-baseline: middle; font-size: 10.2px;" transform="translate(135.515625,123)" y="0" x="0" id="text-entity-User-27c461b8-7e47-434b-b464-33aa59d26eaf-attr-5-comment" class="er entityLabel">nullable</text><rect height="22" width="53.6640625" y="134" x="0" class="er attributeBoxEven"/><text style="dominant-baseline: middle; font-size: 10.2px;" transform="translate(5,145)" y="0" x="0" id="text-entity-User-27c461b8-7e47-434b-b464-33aa59d26eaf-attr-6-type" class="er entityLabel">DateTime</text><rect height="22" width="55.2890625" y="134" x="53.6640625" class="er attributeBoxEven"/><text style="dominant-baseline: middle; font-size: 10.2px;" transform="translate(58.6640625,145)" y="0" x="0" id="text-entity-User-27c461b8-7e47-434b-b464-33aa59d26eaf-attr-6-name" class="er entityLabel">createdAt</text><rect height="22" width="21.5625" y="134" x="108.953125" class="er attributeBoxEven"/><text style="dominant-baseline: middle; font-size: 10.2px;" transform="translate(113.953125,145)" y="0" x="0" id="text-entity-User-27c461b8-7e47-434b-b464-33aa59d26eaf-attr-6-key" class="er entityLabel"/><rect height="22" width="46.78125" y="134" x="130.515625" class="er attributeBoxEven"/><text style="dominant-baseline: middle; font-size: 10.2px;" transform="translate(135.515625,145)" y="0" x="0" id="text-entity-User-27c461b8-7e47-434b-b464-33aa59d26eaf-attr-6-comment" class="er entityLabel"/></g><g transform="translate(312.33984375,232 )" id="entity-Game-7cb84cf3-7fad-47db-be17-2d85d9ff3ce4"><rect height="112" width="198.71875" y="0" x="0" class="er entityBox"/><text style="dominant-baseline: middle; text-anchor: middle; font-size: 12px;" transform="translate(99.359375,12)" y="0" x="0" id="text-entity-Game-7cb84cf3-7fad-47db-be17-2d85d9ff3ce4" class="er entityLabel">Game</text><rect height="22" width="53.6640625" y="24" x="0" class="er attributeBoxOdd"/><text style="dominant-baseline: middle; font-size: 10.2px;" transform="translate(5,35)" y="0" x="0" id="text-entity-Game-7cb84cf3-7fad-47db-be17-2d85d9ff3ce4-attr-1-type" class="er entityLabel">String</text><rect height="22" width="123.4921875" y="24" x="53.6640625" class="er attributeBoxOdd"/><text style="dominant-baseline: middle; font-size: 10.2px;" transform="translate(58.6640625,35)" y="0" x="0" id="text-entity-Game-7cb84cf3-7fad-47db-be17-2d85d9ff3ce4-attr-1-name" class="er entityLabel">id</text><rect height="22" width="21.5625" y="24" x="177.15625" class="er attributeBoxOdd"/><text style="dominant-baseline: middle; font-size: 10.2px;" transform="translate(182.15625,35)" y="0" x="0" id="text-entity-Game-7cb84cf3-7fad-47db-be17-2d85d9ff3ce4-attr-1-key" class="er entityLabel">PK</text><rect height="22" width="53.6640625" y="46" x="0" class="er attributeBoxEven"/><text style="dominant-baseline: middle; font-size: 10.2px;" transform="translate(5,57)" y="0" x="0" id="text-entity-Game-7cb84cf3-7fad-47db-be17-2d85d9ff3ce4-attr-2-type" class="er entityLabel">DateTime</text><rect height="22" width="123.4921875" y="46" x="53.6640625" class="er attributeBoxEven"/><text style="dominant-baseline: middle; font-size: 10.2px;" transform="translate(58.6640625,57)" y="0" x="0" id="text-entity-Game-7cb84cf3-7fad-47db-be17-2d85d9ff3ce4-attr-2-name" class="er entityLabel">date</text><rect height="22" width="21.5625" y="46" x="177.15625" class="er attributeBoxEven"/><text style="dominant-baseline: middle; font-size: 10.2px;" transform="translate(182.15625,57)" y="0" x="0" id="text-entity-Game-7cb84cf3-7fad-47db-be17-2d85d9ff3ce4-attr-2-key" class="er entityLabel"/><rect height="22" width="53.6640625" y="68" x="0" class="er attributeBoxOdd"/><text style="dominant-baseline: middle; font-size: 10.2px;" transform="translate(5,79)" y="0" x="0" id="text-entity-Game-7cb84cf3-7fad-47db-be17-2d85d9ff3ce4-attr-3-type" class="er entityLabel">String</text><rect height="22" width="123.4921875" y="68" x="53.6640625" class="er attributeBoxOdd"/><text style="dominant-baseline: middle; font-size: 10.2px;" transform="translate(58.6640625,79)" y="0" x="0" id="text-entity-Game-7cb84cf3-7fad-47db-be17-2d85d9ff3ce4-attr-3-name" class="er entityLabel">firstTeamCountryCode</text><rect height="22" width="21.5625" y="68" x="177.15625" class="er attributeBoxOdd"/><text style="dominant-baseline: middle; font-size: 10.2px;" transform="translate(182.15625,79)" y="0" x="0" id="text-entity-Game-7cb84cf3-7fad-47db-be17-2d85d9ff3ce4-attr-3-key" class="er entityLabel"/><rect height="22" width="53.6640625" y="90" x="0" class="er attributeBoxEven"/><text style="dominant-baseline: middle; font-size: 10.2px;" transform="translate(5,101)" y="0" x="0" id="text-entity-Game-7cb84cf3-7fad-47db-be17-2d85d9ff3ce4-attr-4-type" class="er entityLabel">String</text><rect height="22" width="123.4921875" y="90" x="53.6640625" class="er attributeBoxEven"/><text style="dominant-baseline: middle; font-size: 10.2px;" transform="translate(58.6640625,101)" y="0" x="0" id="text-entity-Game-7cb84cf3-7fad-47db-be17-2d85d9ff3ce4-attr-4-name" class="er entityLabel">secondteamCountryCode</text><rect height="22" width="21.5625" y="90" x="177.15625" class="er attributeBoxEven"/><text style="dominant-baseline: middle; font-size: 10.2px;" transform="translate(182.15625,101)" y="0" x="0" id="text-entity-Game-7cb84cf3-7fad-47db-be17-2d85d9ff3ce4-attr-4-key" class="er entityLabel"/></g><g transform="translate(277.66015625,20 )" id="entity-Guess-e80004f3-c798-4910-839e-123824563b1f"><rect height="112" width="168.078125" y="0" x="0" class="er entityBox"/><text style="dominant-baseline: middle; text-anchor: middle; font-size: 12px;" transform="translate(84.0390625,12)" y="0" x="0" id="text-entity-Guess-e80004f3-c798-4910-839e-123824563b1f" class="er entityLabel">Guess</text><rect height="22" width="53.6640625" y="24" x="0" class="er attributeBoxOdd"/><text style="dominant-baseline: middle; font-size: 10.2px;" transform="translate(5,35)" y="0" x="0" id="text-entity-Guess-e80004f3-c798-4910-839e-123824563b1f-attr-1-type" class="er entityLabel">String</text><rect height="22" width="92.8515625" y="24" x="53.6640625" class="er attributeBoxOdd"/><text style="dominant-baseline: middle; font-size: 10.2px;" transform="translate(58.6640625,35)" y="0" x="0" id="text-entity-Guess-e80004f3-c798-4910-839e-123824563b1f-attr-1-name" class="er entityLabel">id</text><rect height="22" width="21.5625" y="24" x="146.515625" class="er attributeBoxOdd"/><text style="dominant-baseline: middle; font-size: 10.2px;" transform="translate(151.515625,35)" y="0" x="0" id="text-entity-Guess-e80004f3-c798-4910-839e-123824563b1f-attr-1-key" class="er entityLabel">PK</text><rect height="22" width="53.6640625" y="46" x="0" class="er attributeBoxEven"/><text style="dominant-baseline: middle; font-size: 10.2px;" transform="translate(5,57)" y="0" x="0" id="text-entity-Guess-e80004f3-c798-4910-839e-123824563b1f-attr-2-type" class="er entityLabel">Int</text><rect height="22" width="92.8515625" y="46" x="53.6640625" class="er attributeBoxEven"/><text style="dominant-baseline: middle; font-size: 10.2px;" transform="translate(58.6640625,57)" y="0" x="0" id="text-entity-Guess-e80004f3-c798-4910-839e-123824563b1f-attr-2-name" class="er entityLabel">fristTeamPoints</text><rect height="22" width="21.5625" y="46" x="146.515625" class="er attributeBoxEven"/><text style="dominant-baseline: middle; font-size: 10.2px;" transform="translate(151.515625,57)" y="0" x="0" id="text-entity-Guess-e80004f3-c798-4910-839e-123824563b1f-attr-2-key" class="er entityLabel"/><rect height="22" width="53.6640625" y="68" x="0" class="er attributeBoxOdd"/><text style="dominant-baseline: middle; font-size: 10.2px;" transform="translate(5,79)" y="0" x="0" id="text-entity-Guess-e80004f3-c798-4910-839e-123824563b1f-attr-3-type" class="er entityLabel">Int</text><rect height="22" width="92.8515625" y="68" x="53.6640625" class="er attributeBoxOdd"/><text style="dominant-baseline: middle; font-size: 10.2px;" transform="translate(58.6640625,79)" y="0" x="0" id="text-entity-Guess-e80004f3-c798-4910-839e-123824563b1f-attr-3-name" class="er entityLabel">secondTeamPoints</text><rect height="22" width="21.5625" y="68" x="146.515625" class="er attributeBoxOdd"/><text style="dominant-baseline: middle; font-size: 10.2px;" transform="translate(151.515625,79)" y="0" x="0" id="text-entity-Guess-e80004f3-c798-4910-839e-123824563b1f-attr-3-key" class="er entityLabel"/><rect height="22" width="53.6640625" y="90" x="0" class="er attributeBoxEven"/><text style="dominant-baseline: middle; font-size: 10.2px;" transform="translate(5,101)" y="0" x="0" id="text-entity-Guess-e80004f3-c798-4910-839e-123824563b1f-attr-4-type" class="er entityLabel">DateTime</text><rect height="22" width="92.8515625" y="90" x="53.6640625" class="er attributeBoxEven"/><text style="dominant-baseline: middle; font-size: 10.2px;" transform="translate(58.6640625,101)" y="0" x="0" id="text-entity-Guess-e80004f3-c798-4910-839e-123824563b1f-attr-4-name" class="er entityLabel">createdAt</text><rect height="22" width="21.5625" y="90" x="146.515625" class="er attributeBoxEven"/><text style="dominant-baseline: middle; font-size: 10.2px;" transform="translate(151.515625,101)" y="0" x="0" id="text-entity-Guess-e80004f3-c798-4910-839e-123824563b1f-attr-4-key" class="er entityLabel"/></g><g transform="translate(20,42 )" id="entity-Ranking-7fe7197d-3910-4564-b055-da8c2956dd9c"><rect height="68" width="100" y="0" x="0" class="er entityBox"/><text style="dominant-baseline: middle; text-anchor: middle; font-size: 12px;" transform="translate(50,12)" y="0" x="0" id="text-entity-Ranking-7fe7197d-3910-4564-b055-da8c2956dd9c" class="er entityLabel">Ranking</text><rect height="22" width="37.890625" y="24" x="0" class="er attributeBoxOdd"/><text style="dominant-baseline: middle; font-size: 10.2px;" transform="translate(5,35)" y="0" x="0" id="text-entity-Ranking-7fe7197d-3910-4564-b055-da8c2956dd9c-attr-1-type" class="er entityLabel">String</text><rect height="22" width="39.1796875" y="24" x="37.890625" class="er attributeBoxOdd"/><text style="dominant-baseline: middle; font-size: 10.2px;" transform="translate(42.890625,35)" y="0" x="0" id="text-entity-Ranking-7fe7197d-3910-4564-b055-da8c2956dd9c-attr-1-name" class="er entityLabel">id</text><rect height="22" width="22.9296875" y="24" x="77.0703125" class="er attributeBoxOdd"/><text style="dominant-baseline: middle; font-size: 10.2px;" transform="translate(82.0703125,35)" y="0" x="0" id="text-entity-Ranking-7fe7197d-3910-4564-b055-da8c2956dd9c-attr-1-key" class="er entityLabel">PK</text><rect height="22" width="37.890625" y="46" x="0" class="er attributeBoxEven"/><text style="dominant-baseline: middle; font-size: 10.2px;" transform="translate(5,57)" y="0" x="0" id="text-entity-Ranking-7fe7197d-3910-4564-b055-da8c2956dd9c-attr-2-type" class="er entityLabel">Int</text><rect height="22" width="39.1796875" y="46" x="37.890625" class="er attributeBoxEven"/><text style="dominant-baseline: middle; font-size: 10.2px;" transform="translate(42.890625,57)" y="0" x="0" id="text-entity-Ranking-7fe7197d-3910-4564-b055-da8c2956dd9c-attr-2-name" class="er entityLabel">points</text><rect height="22" width="22.9296875" y="46" x="77.0703125" class="er attributeBoxEven"/><text style="dominant-baseline: middle; font-size: 10.2px;" transform="translate(82.0703125,57)" y="0" x="0" id="text-entity-Ranking-7fe7197d-3910-4564-b055-da8c2956dd9c-attr-2-key" class="er entityLabel"/></g><rect height="14" width="33.140625" y="602.0372314453125" x="179.64083862304688" class="er relationshipLabelBox"/><text style="text-anchor: middle; dominant-baseline: middle; font-size: 12px;" y="609.0372314453125" x="196.21115112304688" id="rel1" class="er relationshipLabel">owner</text><rect height="14" width="22.625" y="471.3194885253906" x="26.151439666748047" class="er relationshipLabelBox"/><text style="text-anchor: middle; dominant-baseline: middle; font-size: 12px;" y="478.3194885253906" x="37.46393966674805" id="rel2" class="er relationshipLabel">user</text><rect height="14" width="23.109375" y="365.19366455078125" x="171.1704559326172" class="er relationshipLabelBox"/><text style="text-anchor: middle; dominant-baseline: middle; font-size: 12px;" y="372.19366455078125" x="182.7251434326172" id="rel3" class="er relationshipLabel">pool</text><rect height="14" width="59.5078125" y="190.77720642089844" x="190.21971130371094" class="er relationshipLabelBox"/><text style="text-anchor: middle; dominant-baseline: middle; font-size: 12px;" y="197.77720642089844" x="219.97361755371094" id="rel4" class="er relationshipLabel">participant</text><rect height="14" width="28.8359375" y="173.27667236328125" x="392.9300537109375" class="er relationshipLabelBox"/><text style="text-anchor: middle; dominant-baseline: middle; font-size: 12px;" y="180.27667236328125" x="407.3480224609375" id="rel5" class="er relationshipLabel">game</text><rect height="14" width="59.5078125" y="183.23939514160156" x="48.507667541503906" class="er relationshipLabelBox"/><text style="text-anchor: middle; dominant-baseline: middle; font-size: 12px;" y="190.23939514160156" x="78.2615737915039" id="rel6" class="er relationshipLabel">participant</text></svg>